<svg width="271" height="24" viewBox="0 0 271 24" fill="none" xmlns="http://www.w3.org/2000/svg">
<path d="M232.696 23.8168H230.508L227.91 17.4412H216.305L213.707 23.8168H211.5L221.307 0.183228H222.909L232.696 23.8168ZM222.108 3.18781L216.892 15.7557H227.304L222.108 3.18781Z" fill="white"/>
<path d="M259.733 14.4367L251.333 0.183228H253.521L260.73 12.568L267.938 0.183228H270.126L261.726 14.4367V23.8168H259.733V14.4367Z" fill="white"/>
<path d="M170.439 0V24H172.236L186.05 3.6093V24H188.043V0H186.245L172.432 20.3721V0H170.439Z" fill="white"/>
<path d="M120.829 12.4C120.829 13.0779 120.946 13.7038 121.181 14.2779C121.422 14.8519 121.741 15.3496 122.138 15.771C122.542 16.1863 123.004 16.5099 123.525 16.742C124.046 16.9741 124.58 17.0901 125.127 17.0901C125.674 17.0901 126.208 16.9741 126.729 16.742C127.25 16.5099 127.709 16.1863 128.106 15.771C128.503 15.3496 128.822 14.8519 129.063 14.2779C129.304 13.6977 129.425 13.0718 129.425 12.4C129.425 11.7222 129.304 11.0962 129.063 10.5222C128.822 9.94812 128.503 9.45346 128.106 9.03819C127.709 8.61682 127.25 8.2901 126.729 8.05804C126.208 7.82598 125.674 7.70995 125.127 7.70995C124.58 7.70995 124.046 7.82598 123.525 8.05804C123.004 8.2901 122.542 8.61682 122.138 9.03819C121.741 9.45346 121.422 9.94812 121.181 10.5222C120.946 11.0962 120.829 11.7222 120.829 12.4ZM131.027 12.4C131.027 13.2489 130.864 14.0367 130.538 14.7634C130.213 15.4901 129.78 16.1252 129.239 16.6687C128.699 17.2122 128.07 17.6367 127.354 17.942C126.644 18.2474 125.902 18.4 125.127 18.4C124.352 18.4 123.606 18.2474 122.89 17.942C122.18 17.6367 121.555 17.2122 121.015 16.6687C120.474 16.1252 120.041 15.4901 119.716 14.7634C119.39 14.0367 119.227 13.2489 119.227 12.4C119.227 11.5634 119.39 10.7787 119.716 10.0458C120.041 9.313 120.474 8.67483 121.015 8.13132C121.555 7.58781 122.18 7.16338 122.89 6.85804C123.606 6.5527 124.352 6.40002 125.127 6.40002C125.902 6.40002 126.644 6.5527 127.354 6.85804C128.07 7.16338 128.699 7.58781 129.239 8.13132C129.78 8.67483 130.213 9.313 130.538 10.0458C130.864 10.7787 131.027 11.5634 131.027 12.4Z" fill="white"/>
<path d="M147.329 13.4351H144.936V18.3084H143.334V6.49163H148.032C148.553 6.49163 149.045 6.58628 149.507 6.7756C149.976 6.9588 150.38 7.20918 150.719 7.52674C151.064 7.83819 151.334 8.20766 151.529 8.63514C151.731 9.05651 151.832 9.49926 151.832 9.96338C151.832 10.6535 151.686 11.2153 151.393 11.6489C151.1 12.0764 150.781 12.4153 150.435 12.6657C150.025 12.9649 149.566 13.1878 149.058 13.3344L152.135 18.3084H150.338L147.329 13.4351ZM144.936 12.1161H148.032C148.326 12.1161 148.606 12.0611 148.873 11.9512C149.14 11.8351 149.374 11.6825 149.576 11.4932C149.778 11.2977 149.937 11.0687 150.054 10.8061C150.172 10.5435 150.23 10.2626 150.23 9.96338C150.23 9.66415 150.172 9.38323 150.054 9.12064C149.937 8.85193 149.778 8.62293 149.576 8.43361C149.374 8.23819 149.14 8.08552 148.873 7.9756C148.606 7.85957 148.326 7.80155 148.032 7.80155H144.936V12.1161Z" fill="white"/>
<path d="M0 0.183228H6.19282L11.3307 9.56338L16.41 0.183228H22.6028L14.2025 15.0046V23.8168H8.40035V15.0046L0 0.183228Z" fill="white"/>
<path d="M40.4389 23.8168L49.4448 0.183228H55.4423L64.4483 23.8168H58.4313L56.8293 19.3099H48.0383L46.4363 23.8168H40.4389ZM49.6402 14.6199H55.2469L52.4338 6.74201L49.6402 14.6199Z" fill="white"/>
<path d="M82.2453 0.183228H88.4381L93.576 9.56338L98.6553 0.183228H104.848L96.4477 15.0046V23.8168H90.6456V15.0046L82.2453 0.183228Z" fill="white"/>
</svg>
